<svg xmlns="http://www.w3.org/2000/svg" viewBox="0 0 32 32" fill="none">
  <rect width="32" height="32" rx="8" fill="#0f172a"/>
  <path d="M16 6c-1.6 0-3.2.8-4 2C11.2 6.8 9.6 6 8 6c-3.3 0-6 2.7-6 6 0 6.7 8.7 12.7 14 16.7 5.3-4 14-10 14-16.7 0-3.3-2.7-6-6-6-1.6 0-3.2.8-4 2-.8-1.2-2.4-2-4-2z" fill="#3b82f6" opacity="0.9"/>
  <path d="M16 10c-.8 0-1.5.4-2 1-.5-.6-1.2-1-2-1-1.7 0-3 1.3-3 3 0 3.3 4.3 6.3 7 8.3 2.7-2 7-5 7-8.3 0-1.7-1.3-3-3-3-.8 0-1.5.4-2 1-.5-.6-1.2-1-2-1z" fill="white" opacity="0.95"/>
</svg>
